<svg width="291" height="61" viewBox="0 0 291 61" fill="none" xmlns="http://www.w3.org/2000/svg">
<path d="M27.92 21.84C27.92 24.72 27.08 26.8667 25.4 28.28C23.7467 29.6933 21.1733 30.4 17.68 30.4H4.2C3.56 30.4 3.09333 30.2533 2.8 29.96C2.50667 29.6667 2.36 29.2 2.36 28.56V2.64C2.36 2 2.50667 1.53333 2.8 1.24C3.09333 0.946666 3.56 0.799999 4.2 0.799999H17.68C21.1733 0.799999 23.7467 1.50667 25.4 2.92C27.08 4.33333 27.92 6.48 27.92 9.36V21.84ZM17.68 30C21.0133 30 23.48 29.3333 25.08 28C26.7067 26.6667 27.52 24.6133 27.52 21.84V9.36C27.52 6.58667 26.7067 4.53333 25.08 3.2C23.48 1.86667 21.0133 1.2 17.68 1.2H4.2C3.69333 1.2 3.32 1.32 3.08 1.56C2.86667 1.77333 2.76 2.13333 2.76 2.64V28.56C2.76 29.0667 2.86667 29.44 3.08 29.68C3.32 29.8933 3.69333 30 4.2 30H17.68ZM7.12 26.4V4.8H16.8C18.16 4.8 19.2533 4.94666 20.08 5.24C20.9333 5.53333 21.5867 5.93333 22.04 6.44C22.4933 6.92 22.8 7.50667 22.96 8.2C23.12 8.86667 23.2 9.58667 23.2 10.36V20.96C23.2 21.7333 23.12 22.4533 22.96 23.12C22.8267 23.7867 22.5333 24.36 22.08 24.84C21.6267 25.32 20.9733 25.7067 20.12 26C19.2667 26.2667 18.16 26.4 16.8 26.4H7.12ZM16.8 5.2H7.52V26H16.8C18.08 26 19.1067 25.88 19.88 25.64C20.68 25.3733 21.2933 25.0267 21.72 24.6C22.1467 24.1467 22.4267 23.6133 22.56 23C22.72 22.36 22.8 21.68 22.8 20.96V10.36C22.8 9.64 22.72 8.96 22.56 8.32C22.4 7.68 22.1067 7.13333 21.68 6.68C21.2533 6.22667 20.64 5.86667 19.84 5.6C19.0667 5.33333 18.0533 5.2 16.8 5.2ZM11.84 8.84H16.6C17.24 8.84 17.7067 9 18 9.32C18.32 9.61333 18.48 10.0933 18.48 10.76V20.48C18.48 21.1467 18.32 21.64 18 21.96C17.7067 22.28 17.24 22.44 16.6 22.44H11.84V8.84ZM16.6 9.24H12.24V22.04H16.6C17.1067 22.04 17.48 21.92 17.72 21.68C17.96 21.4133 18.08 21.0133 18.08 20.48V10.76C18.08 10.2533 17.96 9.88 17.72 9.64C17.48 9.37333 17.1067 9.24 16.6 9.24ZM36.6438 17.88V19.12H52.2438V17.88C52.2438 17.16 52.1771 16.4933 52.0438 15.88C51.9371 15.2667 51.7904 14.6933 51.6038 14.16L48.8438 7.64C48.5504 6.94667 48.2438 6.37333 47.9238 5.92C47.6038 5.44 47.0704 5.2 46.3238 5.2H42.4038C41.6038 5.2 41.0438 5.44 40.7238 5.92C40.4038 6.37333 40.1104 6.93333 39.8438 7.6L37.2838 14.16C37.0971 14.6933 36.9371 15.2667 36.8038 15.88C36.6971 16.4933 36.6438 17.16 36.6438 17.88ZM43.0438 9.6C43.1504 9.36 43.2571 9.18667 43.3638 9.08C43.4971 8.97333 43.6438 8.92 43.8038 8.92H44.8038C44.9638 8.92 45.0971 8.97333 45.2038 9.08C45.3371 9.18667 45.4571 9.36 45.5638 9.6L47.4438 15.68H41.1638L43.0438 9.6ZM45.1638 9.72L45.2038 9.76C45.1504 9.65333 45.0971 9.56 45.0438 9.48C44.9904 9.37333 44.9104 9.32 44.8038 9.32H43.8038C43.6971 9.32 43.6171 9.37333 43.5638 9.48C43.5104 9.56 43.4571 9.65333 43.4038 9.76L43.4438 9.72L41.7238 15.28H46.8838L45.1638 9.72ZM52.2438 26.4V19.52H36.6438V26.4H36.2438V17.88C36.2438 17.1333 36.2971 16.4533 36.4038 15.84C36.5371 15.2 36.7104 14.5867 36.9238 14L39.4838 7.44C39.7771 6.69333 40.1104 6.06667 40.4838 5.56C40.8571 5.05333 41.4971 4.8 42.4038 4.8H46.3238C47.2038 4.8 47.8171 5.05333 48.1638 5.56C48.5371 6.06667 48.8838 6.70667 49.2038 7.48L51.9638 14C52.1771 14.5867 52.3371 15.2 52.4437 15.84C52.5771 16.4533 52.6438 17.1333 52.6438 17.88V26.4H52.2438ZM40.7638 28.56V22.96H47.8438V28.56C47.8438 29.0667 47.9638 29.44 48.2038 29.68C48.4704 29.8933 48.8704 30 49.4038 30H55.4438C55.9504 30 56.3104 29.8933 56.5238 29.68C56.7638 29.44 56.8838 29.0667 56.8838 28.56V18C56.8838 17.2 56.7504 16.28 56.4838 15.24C56.2438 14.2 55.8571 12.9867 55.3238 11.6L51.8438 2.52C51.6838 2.06666 51.4304 1.73333 51.0838 1.52C50.7638 1.30667 50.3504 1.2 49.8438 1.2H39.0838C38.5504 1.2 38.1104 1.30667 37.7638 1.52C37.4438 1.73333 37.2038 2.06666 37.0438 2.52L33.5638 11.6C33.0304 12.9867 32.6304 14.2 32.3638 15.24C32.1238 16.28 32.0038 17.2 32.0038 18V28.56C32.0038 29.0667 32.1104 29.44 32.3238 29.68C32.5638 29.8933 32.9371 30 33.4438 30H39.3238C39.8304 30 40.1904 29.8933 40.4037 29.68C40.6438 29.44 40.7638 29.0667 40.7638 28.56ZM33.4438 30.4C32.8038 30.4 32.3371 30.2533 32.0438 29.96C31.7504 29.6667 31.6038 29.2 31.6038 28.56V18C31.6038 17.1733 31.7238 16.24 31.9638 15.2C32.2304 14.1333 32.6438 12.88 33.2038 11.44L36.6838 2.4C36.8704 1.84 37.1504 1.44 37.5238 1.2C37.9238 0.933332 38.4438 0.799999 39.0838 0.799999H49.8438C50.4571 0.799999 50.9504 0.933332 51.3238 1.2C51.7238 1.44 52.0171 1.82667 52.2038 2.36L55.6838 11.44C56.2438 12.88 56.6438 14.1333 56.8838 15.2C57.1504 16.24 57.2838 17.1733 57.2838 18V28.56C57.2838 29.2 57.1371 29.6667 56.8438 29.96C56.5504 30.2533 56.0838 30.4 55.4438 30.4H49.4038C48.7371 30.4 48.2438 30.2533 47.9238 29.96C47.6038 29.64 47.4438 29.1733 47.4438 28.56V23.36H41.1638V28.56C41.1638 29.2 41.0171 29.6667 40.7238 29.96C40.4304 30.2533 39.9638 30.4 39.3238 30.4H33.4438ZM67.1025 5.12L81.8225 21.68V4.8H82.2225V26.4H81.8225V22.28L66.7025 5.32C66.6758 5.29333 66.6358 5.26667 66.5825 5.24C66.5558 5.21333 66.5292 5.2 66.5025 5.2C66.4758 5.2 66.4492 5.21333 66.4225 5.24C66.4225 5.26667 66.4225 5.29333 66.4225 5.32V26.4H66.0225V5.24C66.0225 5.08 66.0758 4.96 66.1825 4.88C66.2892 4.8 66.3958 4.76 66.5025 4.76C66.6092 4.76 66.7025 4.78667 66.7825 4.84C66.8625 4.89333 66.9692 4.98667 67.1025 5.12ZM69.2625 30C69.7692 30 70.1292 29.8933 70.3425 29.68C70.5825 29.44 70.7025 29.0667 70.7025 28.56V15.36L77.5425 23.64V28.56C77.5425 29.0667 77.6492 29.44 77.8625 29.68C78.1025 29.8933 78.4758 30 78.9825 30H84.9825C85.4892 30 85.8492 29.8933 86.0625 29.68C86.3025 29.44 86.4225 29.0667 86.4225 28.56V2.64C86.4225 2.13333 86.3025 1.77333 86.0625 1.56C85.8492 1.32 85.4892 1.2 84.9825 1.2H78.9825C78.4758 1.2 78.1025 1.32 77.8625 1.56C77.6492 1.77333 77.5425 2.13333 77.5425 2.64V11.16L69.7825 2.28C69.4358 1.88 69.0758 1.6 68.7025 1.44C68.3558 1.28 67.9292 1.2 67.4225 1.2H63.2625C62.7558 1.2 62.3825 1.32 62.1425 1.56C61.9292 1.77333 61.8225 2.13333 61.8225 2.64V28.56C61.8225 29.0667 61.9292 29.44 62.1425 29.68C62.3825 29.8933 62.7558 30 63.2625 30H69.2625ZM69.2625 30.4H63.2625C62.6225 30.4 62.1558 30.2533 61.8625 29.96C61.5692 29.6667 61.4225 29.2 61.4225 28.56V2.64C61.4225 2 61.5692 1.53333 61.8625 1.24C62.1558 0.946666 62.6225 0.799999 63.2625 0.799999H67.4225C68.0092 0.799999 68.5025 0.893332 68.9025 1.08C69.3025 1.26667 69.7025 1.57333 70.1025 2L77.1425 10.04V2.64C77.1425 2 77.2892 1.53333 77.5825 1.24C77.8758 0.946666 78.3425 0.799999 78.9825 0.799999H84.9825C85.6225 0.799999 86.0892 0.946666 86.3825 1.24C86.6758 1.53333 86.8225 2 86.8225 2.64V28.56C86.8225 29.2 86.6758 29.6667 86.3825 29.96C86.0892 30.2533 85.6225 30.4 84.9825 30.4H78.9825C78.3425 30.4 77.8758 30.2533 77.5825 29.96C77.2892 29.6667 77.1425 29.2 77.1425 28.56V23.8L71.1025 16.48V28.56C71.1025 29.2 70.9558 29.6667 70.6625 29.96C70.3692 30.2533 69.9025 30.4 69.2625 30.4ZM101.34 30.4C97.8464 30.4 95.2597 29.6933 93.5797 28.28C91.9264 26.8667 91.0997 24.72 91.0997 21.84V9.36C91.0997 6.48 91.9264 4.33333 93.5797 2.92C95.2597 1.50667 97.8464 0.799999 101.34 0.799999H111.34C111.98 0.799999 112.446 0.946666 112.74 1.24C113.033 1.53333 113.18 2 113.18 2.64V7.48C113.18 8.12 113.033 8.58667 112.74 8.88C112.446 9.17333 111.98 9.32 111.34 9.32H103.02C102.353 9.32 101.846 9.45333 101.5 9.72C101.153 9.96 100.98 10.36 100.98 10.92V20.48C100.98 21.0133 101.086 21.4133 101.3 21.68C101.54 21.92 101.913 22.04 102.42 22.04H105.9V16.2C105.9 15.56 106.046 15.0933 106.34 14.8C106.633 14.5067 107.1 14.36 107.74 14.36H113.94C114.58 14.36 115.046 14.5067 115.34 14.8C115.633 15.0933 115.78 15.56 115.78 16.2V28.56C115.78 29.2 115.633 29.6667 115.34 29.96C115.046 30.2533 114.58 30.4 113.94 30.4H101.34ZM113.94 30C114.446 30 114.806 29.8933 115.02 29.68C115.26 29.44 115.38 29.0667 115.38 28.56V16.2C115.38 15.6933 115.26 15.3333 115.02 15.12C114.806 14.88 114.446 14.76 113.94 14.76H107.74C107.233 14.76 106.86 14.88 106.62 15.12C106.406 15.3333 106.3 15.6933 106.3 16.2V22.44H102.42C101.806 22.44 101.34 22.28 101.02 21.96C100.726 21.64 100.58 21.1467 100.58 20.48V10.92C100.58 10.2533 100.78 9.76 101.18 9.44C101.58 9.09333 102.193 8.92 103.02 8.92H111.34C111.846 8.92 112.206 8.81333 112.42 8.6C112.66 8.36 112.78 7.98667 112.78 7.48V2.64C112.78 2.13333 112.66 1.77333 112.42 1.56C112.206 1.32 111.846 1.2 111.34 1.2H101.34C98.0064 1.2 95.5264 1.86667 93.8997 3.2C92.2997 4.53333 91.4997 6.58667 91.4997 9.36V21.84C91.4997 24.6133 92.2997 26.6667 93.8997 28C95.5264 29.3333 98.0064 30 101.34 30H113.94ZM103.06 26.4C101.593 26.4 100.393 26.3067 99.4597 26.12C98.5264 25.9333 97.793 25.64 97.2597 25.24C96.7264 24.8133 96.353 24.28 96.1397 23.64C95.953 22.9733 95.8597 22.1733 95.8597 21.24V10.04C95.8597 8.14667 96.2864 6.8 97.1397 6C97.993 5.2 99.6997 4.8 102.26 4.8H109.18V5.2H102.26C99.913 5.2 98.3264 5.57333 97.4997 6.32C96.673 7.04 96.2597 8.28 96.2597 10.04V21.24C96.2597 22.9733 96.713 24.2 97.6197 24.92C98.553 25.64 100.366 26 103.06 26H110.62V18.36H111.02V26.4H103.06ZM125.54 5.12L140.26 21.68V4.8H140.66V26.4H140.26V22.28L125.14 5.32C125.113 5.29333 125.073 5.26667 125.02 5.24C124.993 5.21333 124.967 5.2 124.94 5.2C124.913 5.2 124.887 5.21333 124.86 5.24C124.86 5.26667 124.86 5.29333 124.86 5.32V26.4H124.46V5.24C124.46 5.08 124.513 4.96 124.62 4.88C124.727 4.8 124.833 4.76 124.94 4.76C125.047 4.76 125.14 4.78667 125.22 4.84C125.3 4.89333 125.407 4.98667 125.54 5.12ZM127.7 30C128.207 30 128.567 29.8933 128.78 29.68C129.02 29.44 129.14 29.0667 129.14 28.56V15.36L135.98 23.64V28.56C135.98 29.0667 136.087 29.44 136.3 29.68C136.54 29.8933 136.913 30 137.42 30H143.42C143.927 30 144.287 29.8933 144.5 29.68C144.74 29.44 144.86 29.0667 144.86 28.56V2.64C144.86 2.13333 144.74 1.77333 144.5 1.56C144.287 1.32 143.927 1.2 143.42 1.2H137.42C136.913 1.2 136.54 1.32 136.3 1.56C136.087 1.77333 135.98 2.13333 135.98 2.64V11.16L128.22 2.28C127.873 1.88 127.513 1.6 127.14 1.44C126.793 1.28 126.367 1.2 125.86 1.2H121.7C121.193 1.2 120.82 1.32 120.58 1.56C120.367 1.77333 120.26 2.13333 120.26 2.64V28.56C120.26 29.0667 120.367 29.44 120.58 29.68C120.82 29.8933 121.193 30 121.7 30H127.7ZM127.7 30.4H121.7C121.06 30.4 120.593 30.2533 120.3 29.96C120.007 29.6667 119.86 29.2 119.86 28.56V2.64C119.86 2 120.007 1.53333 120.3 1.24C120.593 0.946666 121.06 0.799999 121.7 0.799999H125.86C126.447 0.799999 126.94 0.893332 127.34 1.08C127.74 1.26667 128.14 1.57333 128.54 2L135.58 10.04V2.64C135.58 2 135.727 1.53333 136.02 1.24C136.313 0.946666 136.78 0.799999 137.42 0.799999H143.42C144.06 0.799999 144.527 0.946666 144.82 1.24C145.113 1.53333 145.26 2 145.26 2.64V28.56C145.26 29.2 145.113 29.6667 144.82 29.96C144.527 30.2533 144.06 30.4 143.42 30.4H137.42C136.78 30.4 136.313 30.2533 136.02 29.96C135.727 29.6667 135.58 29.2 135.58 28.56V23.8L129.54 16.48V28.56C129.54 29.2 129.393 29.6667 129.1 29.96C128.807 30.2533 128.34 30.4 127.7 30.4ZM159.777 30.4C156.284 30.4 153.697 29.6933 152.017 28.28C150.364 26.8667 149.537 24.72 149.537 21.84V9.36C149.537 6.48 150.364 4.33333 152.017 2.92C153.697 1.50667 156.284 0.799999 159.777 0.799999H169.777C170.417 0.799999 170.884 0.946666 171.177 1.24C171.471 1.53333 171.617 2 171.617 2.64V7.48C171.617 8.12 171.471 8.58667 171.177 8.88C170.884 9.17333 170.417 9.32 169.777 9.32H161.457C160.791 9.32 160.284 9.45333 159.937 9.72C159.591 9.96 159.417 10.36 159.417 10.92V20.48C159.417 21.0133 159.524 21.4133 159.737 21.68C159.977 21.92 160.351 22.04 160.857 22.04H164.337V16.2C164.337 15.56 164.484 15.0933 164.777 14.8C165.071 14.5067 165.537 14.36 166.177 14.36H172.377C173.017 14.36 173.484 14.5067 173.777 14.8C174.071 15.0933 174.217 15.56 174.217 16.2V28.56C174.217 29.2 174.071 29.6667 173.777 29.96C173.484 30.2533 173.017 30.4 172.377 30.4H159.777ZM172.377 30C172.884 30 173.244 29.8933 173.457 29.68C173.697 29.44 173.817 29.0667 173.817 28.56V16.2C173.817 15.6933 173.697 15.3333 173.457 15.12C173.244 14.88 172.884 14.76 172.377 14.76H166.177C165.671 14.76 165.297 14.88 165.057 15.12C164.844 15.3333 164.737 15.6933 164.737 16.2V22.44H160.857C160.244 22.44 159.777 22.28 159.457 21.96C159.164 21.64 159.017 21.1467 159.017 20.48V10.92C159.017 10.2533 159.217 9.76 159.617 9.44C160.017 9.09333 160.631 8.92 161.457 8.92H169.777C170.284 8.92 170.644 8.81333 170.857 8.6C171.097 8.36 171.217 7.98667 171.217 7.48V2.64C171.217 2.13333 171.097 1.77333 170.857 1.56C170.644 1.32 170.284 1.2 169.777 1.2H159.777C156.444 1.2 153.964 1.86667 152.337 3.2C150.737 4.53333 149.937 6.58667 149.937 9.36V21.84C149.937 24.6133 150.737 26.6667 152.337 28C153.964 29.3333 156.444 30 159.777 30H172.377ZM161.497 26.4C160.031 26.4 158.831 26.3067 157.897 26.12C156.964 25.9333 156.231 25.64 155.697 25.24C155.164 24.8133 154.791 24.28 154.577 23.64C154.391 22.9733 154.297 22.1733 154.297 21.24V10.04C154.297 8.14667 154.724 6.8 155.577 6C156.431 5.2 158.137 4.8 160.697 4.8H167.617V5.2H160.697C158.351 5.2 156.764 5.57333 155.937 6.32C155.111 7.04 154.697 8.28 154.697 10.04V21.24C154.697 22.9733 155.151 24.2 156.057 24.92C156.991 25.64 158.804 26 161.497 26H169.057V18.36H169.457V26.4H161.497ZM203.618 2.64V22.44C203.618 23.6933 203.431 24.8533 203.058 25.92C202.711 26.96 202.071 27.8533 201.138 28.6C200.204 29.3467 198.898 29.9333 197.218 30.36C195.564 30.7867 193.444 31 190.858 31C188.271 31 186.138 30.7867 184.458 30.36C182.804 29.9333 181.511 29.3467 180.578 28.6C179.644 27.8533 178.991 26.96 178.618 25.92C178.271 24.8533 178.098 23.6933 178.098 22.44V2.64C178.098 2 178.244 1.53333 178.538 1.24C178.831 0.946666 179.298 0.799999 179.938 0.799999H186.217C186.858 0.799999 187.324 0.946666 187.618 1.24C187.911 1.53333 188.058 2 188.058 2.64V20.88C188.058 21.36 188.258 21.7333 188.658 22C189.084 22.24 189.844 22.36 190.938 22.36C192.058 22.36 192.818 22.24 193.218 22C193.644 21.7333 193.858 21.36 193.858 20.88V2.64C193.858 2 193.991 1.53333 194.258 1.24C194.551 0.946666 195.031 0.799999 195.698 0.799999H201.778C202.418 0.799999 202.884 0.946666 203.178 1.24C203.471 1.53333 203.618 2 203.618 2.64ZM203.218 22.44V2.64C203.218 2.13333 203.098 1.77333 202.858 1.56C202.644 1.32 202.284 1.2 201.778 1.2H195.698C195.191 1.2 194.818 1.32 194.578 1.56C194.364 1.77333 194.258 2.13333 194.258 2.64V20.88C194.258 21.4133 194.058 21.8667 193.658 22.24C193.258 22.5867 192.351 22.76 190.938 22.76C189.551 22.76 188.658 22.5867 188.258 22.24C187.858 21.8667 187.658 21.4133 187.658 20.88V2.64C187.658 2.13333 187.538 1.77333 187.298 1.56C187.084 1.32 186.724 1.2 186.217 1.2H179.938C179.431 1.2 179.058 1.32 178.818 1.56C178.604 1.77333 178.498 2.13333 178.498 2.64V22.44C178.498 23.6667 178.671 24.7867 179.018 25.8C179.391 26.7867 180.031 27.64 180.938 28.36C181.871 29.0533 183.138 29.6 184.738 30C186.338 30.4 188.378 30.6 190.858 30.6C193.338 30.6 195.378 30.4 196.978 30C198.578 29.6 199.831 29.0533 200.738 28.36C201.671 27.64 202.311 26.7867 202.658 25.8C203.031 24.7867 203.218 23.6667 203.218 22.44ZM182.898 4.8H183.298V21.48C183.298 22.9733 183.818 24.1867 184.858 25.12C185.924 26.0267 187.938 26.48 190.898 26.48C193.858 26.48 195.871 26.0267 196.938 25.12C198.004 24.1867 198.537 22.9733 198.537 21.48V4.8H198.938V21.48C198.938 23.08 198.378 24.3867 197.258 25.4C196.138 26.3867 194.018 26.88 190.898 26.88C187.778 26.88 185.658 26.3867 184.538 25.4C183.444 24.3867 182.898 23.08 182.898 21.48V4.8ZM216.661 30.4C215.995 30.4 215.515 30.2533 215.221 29.96C214.955 29.6667 214.821 29.2 214.821 28.56V23.56L208.781 15.48C208.141 14.6267 207.715 13.88 207.501 13.24C207.288 12.6 207.181 11.6267 207.181 10.32V2.64C207.181 2 207.328 1.53333 207.621 1.24C207.915 0.946666 208.381 0.799999 209.021 0.799999H215.181C215.821 0.799999 216.288 0.946666 216.581 1.24C216.875 1.53333 217.021 2 217.021 2.64V9.2C217.021 9.44 217.035 9.68 217.061 9.92C217.088 10.16 217.168 10.4133 217.301 10.68L219.181 13.56C219.261 13.72 219.341 13.84 219.421 13.92C219.528 14 219.648 14.04 219.781 14.04H220.181C220.315 14.04 220.421 14 220.501 13.92C220.608 13.84 220.715 13.72 220.821 13.56L222.661 10.68C222.795 10.4133 222.875 10.16 222.901 9.92C222.928 9.68 222.941 9.44 222.941 9.2V2.64C222.941 2 223.088 1.53333 223.381 1.24C223.675 0.946666 224.141 0.799999 224.781 0.799999H230.741C231.381 0.799999 231.848 0.946666 232.141 1.24C232.435 1.53333 232.581 2 232.581 2.64V10.32C232.581 11.6267 232.475 12.6 232.261 13.24C232.048 13.88 231.621 14.6267 230.981 15.48L224.981 23.6V28.56C224.981 29.2 224.835 29.6667 224.541 29.96C224.248 30.2533 223.781 30.4 223.141 30.4H216.661ZM223.141 30C223.648 30 224.008 29.8933 224.221 29.68C224.461 29.44 224.581 29.0667 224.581 28.56V23.48L230.661 15.24C231.248 14.4133 231.648 13.6933 231.861 13.08C232.075 12.4667 232.181 11.5467 232.181 10.32V2.64C232.181 2.13333 232.061 1.77333 231.821 1.56C231.608 1.32 231.248 1.2 230.741 1.2H224.781C224.275 1.2 223.901 1.32 223.661 1.56C223.448 1.77333 223.341 2.13333 223.341 2.64V9.2C223.341 9.46666 223.328 9.74667 223.301 10.04C223.275 10.3333 223.168 10.6133 222.981 10.88L221.141 13.76C221.008 14 220.861 14.1733 220.701 14.28C220.568 14.3867 220.395 14.44 220.181 14.44H219.781C219.568 14.44 219.381 14.3867 219.221 14.28C219.088 14.1733 218.955 14 218.821 13.76L216.981 10.88C216.795 10.6133 216.688 10.3333 216.661 10.04C216.635 9.74667 216.621 9.46666 216.621 9.2V2.64C216.621 2.13333 216.501 1.77333 216.261 1.56C216.048 1.32 215.688 1.2 215.181 1.2H209.021C208.515 1.2 208.141 1.32 207.901 1.56C207.688 1.77333 207.581 2.13333 207.581 2.64V10.32C207.581 11.5467 207.675 12.4667 207.861 13.08C208.075 13.6933 208.488 14.4133 209.101 15.24L215.221 23.44V28.56C215.221 29.0667 215.328 29.44 215.541 29.68C215.781 29.8933 216.155 30 216.661 30H223.141ZM220.381 19.56H220.101V26.4H219.701V19.56H219.301C218.715 19.56 218.181 19.4267 217.701 19.16C217.248 18.8933 216.808 18.4667 216.381 17.88L212.501 12.48C212.208 12.08 212.035 11.6133 211.981 11.08C211.928 10.5467 211.901 9.98667 211.901 9.4V4.8H212.301V9.4C212.301 9.96 212.328 10.4933 212.381 11C212.435 11.48 212.595 11.92 212.861 12.32L216.741 17.72C217.088 18.2533 217.488 18.6267 217.941 18.84C218.395 19.0533 218.848 19.16 219.301 19.16H220.381C220.888 19.16 221.341 19.0533 221.741 18.84C222.168 18.6 222.581 18.2267 222.981 17.72L226.981 12.32C227.248 11.9733 227.408 11.5467 227.461 11.04C227.515 10.5067 227.541 9.96 227.541 9.4V4.8H227.941V9.4C227.941 9.98667 227.915 10.5467 227.861 11.08C227.835 11.5867 227.661 12.0533 227.341 12.48L223.341 17.88C222.915 18.4667 222.461 18.8933 221.981 19.16C221.528 19.4267 220.995 19.56 220.381 19.56ZM238.184 30.4C237.544 30.4 237.078 30.2533 236.784 29.96C236.491 29.6667 236.344 29.2 236.344 28.56V2.64C236.344 2 236.491 1.53333 236.784 1.24C237.078 0.946666 237.544 0.799999 238.184 0.799999H256.744C257.384 0.799999 257.851 0.946666 258.144 1.24C258.438 1.53333 258.584 2 258.584 2.64V7.32C258.584 7.96 258.438 8.42667 258.144 8.72C257.851 9.01333 257.384 9.16 256.744 9.16H246.104V11.44H253.504C254.144 11.44 254.611 11.5867 254.904 11.88C255.198 12.1733 255.344 12.64 255.344 13.28V17.56C255.344 18.2 255.198 18.6667 254.904 18.96C254.611 19.2533 254.144 19.4 253.504 19.4H246.104V22.04H256.744C257.384 22.04 257.851 22.1867 258.144 22.48C258.438 22.7733 258.584 23.24 258.584 23.88V28.56C258.584 29.2 258.438 29.6667 258.144 29.96C257.851 30.2533 257.384 30.4 256.744 30.4H238.184ZM256.744 30C257.251 30 257.611 29.8933 257.824 29.68C258.064 29.44 258.184 29.0667 258.184 28.56V23.88C258.184 23.3733 258.064 23.0133 257.824 22.8C257.611 22.56 257.251 22.44 256.744 22.44H245.704V19H253.504C254.011 19 254.371 18.8933 254.584 18.68C254.824 18.44 254.944 18.0667 254.944 17.56V13.28C254.944 12.7733 254.824 12.4133 254.584 12.2C254.371 11.96 254.011 11.84 253.504 11.84H245.704V8.76H256.744C257.251 8.76 257.611 8.65333 257.824 8.44C258.064 8.2 258.184 7.82667 258.184 7.32V2.64C258.184 2.13333 258.064 1.77333 257.824 1.56C257.611 1.32 257.251 1.2 256.744 1.2H238.184C237.678 1.2 237.304 1.32 237.064 1.56C236.851 1.77333 236.744 2.13333 236.744 2.64V28.56C236.744 29.0667 236.851 29.44 237.064 29.68C237.304 29.8933 237.678 30 238.184 30H256.744ZM254.584 26V26.4H241.104V4.8H254.584V5.2H241.504V15.24H251.344V15.64H241.504V26H254.584ZM268.196 5.12L282.916 21.68V4.8H283.316V26.4H282.916V22.28L267.796 5.32C267.77 5.29333 267.73 5.26667 267.676 5.24C267.65 5.21333 267.623 5.2 267.596 5.2C267.57 5.2 267.543 5.21333 267.516 5.24C267.516 5.26667 267.516 5.29333 267.516 5.32V26.4H267.116V5.24C267.116 5.08 267.17 4.96 267.276 4.88C267.383 4.8 267.49 4.76 267.596 4.76C267.703 4.76 267.796 4.78667 267.876 4.84C267.956 4.89333 268.063 4.98667 268.196 5.12ZM270.356 30C270.863 30 271.223 29.8933 271.436 29.68C271.676 29.44 271.796 29.0667 271.796 28.56V15.36L278.636 23.64V28.56C278.636 29.0667 278.743 29.44 278.956 29.68C279.196 29.8933 279.57 30 280.076 30H286.076C286.583 30 286.943 29.8933 287.156 29.68C287.396 29.44 287.516 29.0667 287.516 28.56V2.64C287.516 2.13333 287.396 1.77333 287.156 1.56C286.943 1.32 286.583 1.2 286.076 1.2H280.076C279.57 1.2 279.196 1.32 278.956 1.56C278.743 1.77333 278.636 2.13333 278.636 2.64V11.16L270.876 2.28C270.53 1.88 270.17 1.6 269.796 1.44C269.45 1.28 269.023 1.2 268.516 1.2H264.356C263.85 1.2 263.476 1.32 263.236 1.56C263.023 1.77333 262.916 2.13333 262.916 2.64V28.56C262.916 29.0667 263.023 29.44 263.236 29.68C263.476 29.8933 263.85 30 264.356 30H270.356ZM270.356 30.4H264.356C263.716 30.4 263.25 30.2533 262.956 29.96C262.663 29.6667 262.516 29.2 262.516 28.56V2.64C262.516 2 262.663 1.53333 262.956 1.24C263.25 0.946666 263.716 0.799999 264.356 0.799999H268.516C269.103 0.799999 269.596 0.893332 269.996 1.08C270.396 1.26667 270.796 1.57333 271.196 2L278.236 10.04V2.64C278.236 2 278.383 1.53333 278.676 1.24C278.97 0.946666 279.436 0.799999 280.076 0.799999H286.076C286.716 0.799999 287.183 0.946666 287.476 1.24C287.77 1.53333 287.916 2 287.916 2.64V28.56C287.916 29.2 287.77 29.6667 287.476 29.96C287.183 30.2533 286.716 30.4 286.076 30.4H280.076C279.436 30.4 278.97 30.2533 278.676 29.96C278.383 29.6667 278.236 29.2 278.236 28.56V23.8L272.196 16.48V28.56C272.196 29.2 272.05 29.6667 271.756 29.96C271.463 30.2533 270.996 30.4 270.356 30.4ZM4.2 60.4C3.56 60.4 3.09333 60.2533 2.8 59.96C2.50667 59.6667 2.36 59.2 2.36 58.56V32.64C2.36 32 2.50667 31.5333 2.8 31.24C3.09333 30.9467 3.56 30.8 4.2 30.8H16.44C18.3333 30.8 19.92 31 21.2 31.4C22.48 31.8 23.4933 32.36 24.24 33.08C24.9867 33.8 25.5067 34.6667 25.8 35.68C26.12 36.6933 26.28 37.8 26.28 39V44.12C26.28 45.32 26.12 46.4267 25.8 47.44C25.5067 48.4533 24.9867 49.32 24.24 50.04C23.4933 50.76 22.48 51.32 21.2 51.72C19.92 52.12 18.3333 52.32 16.44 52.32H12.24V58.56C12.24 59.2 12.0933 59.6667 11.8 59.96C11.5067 60.2533 11.04 60.4 10.4 60.4H4.2ZM10.4 60C10.9067 60 11.2667 59.8933 11.48 59.68C11.72 59.44 11.84 59.0667 11.84 58.56V51.92H16.44C20.0667 51.92 22.5467 51.2 23.88 49.76C25.2133 48.32 25.88 46.44 25.88 44.12V39C25.88 36.68 25.2133 34.8 23.88 33.36C22.5467 31.92 20.0667 31.2 16.44 31.2H4.2C3.69333 31.2 3.32 31.32 3.08 31.56C2.86667 31.7733 2.76 32.1333 2.76 32.64V58.56C2.76 59.0667 2.86667 59.44 3.08 59.68C3.32 59.8933 3.69333 60 4.2 60H10.4ZM15.88 48.52H7.64V56.4H7.24V34.8H15.88C17.1333 34.8 18.1467 34.9467 18.92 35.24C19.72 35.5067 20.3333 35.88 20.76 36.36C21.1867 36.84 21.48 37.4133 21.64 38.08C21.8 38.7467 21.88 39.4667 21.88 40.24V43.2C21.88 43.9733 21.8 44.6933 21.64 45.36C21.48 46 21.1867 46.56 20.76 47.04C20.3333 47.4933 19.72 47.8533 18.92 48.12C18.1467 48.3867 17.1333 48.52 15.88 48.52ZM7.64 48.12H15.88C17.0533 48.12 18 48 18.72 47.76C19.4667 47.52 20.04 47.1867 20.44 46.76C20.84 46.3067 21.1067 45.7867 21.24 45.2C21.4 44.5867 21.48 43.92 21.48 43.2V40.24C21.48 39.52 21.4 38.8533 21.24 38.24C21.1067 37.6267 20.84 37.0933 20.44 36.64C20.04 36.1867 19.4667 35.84 18.72 35.6C18 35.3333 17.0533 35.2 15.88 35.2H7.64V48.12ZM11.76 38.68H15.36C16.1333 38.68 16.64 38.88 16.88 39.28C17.12 39.68 17.24 40.1333 17.24 40.64V42.76C17.24 43.2667 17.12 43.72 16.88 44.12C16.64 44.52 16.1333 44.72 15.36 44.72H11.76V38.68ZM15.36 39.08H12.16V44.32H15.36C15.9733 44.32 16.3733 44.16 16.56 43.84C16.7467 43.52 16.84 43.16 16.84 42.76V40.64C16.84 40.24 16.7467 39.88 16.56 39.56C16.3733 39.24 15.9733 39.08 15.36 39.08ZM34.3456 56.4V34.8H34.7456V45.4H50.1056V34.8H50.5056V56.4H50.1056V45.8H34.7456V56.4H34.3456ZM37.6656 60C38.1723 60 38.5323 59.8933 38.7456 59.68C38.9856 59.44 39.1056 59.0667 39.1056 58.56V49.68H45.7856V58.56C45.7856 59.0667 45.8923 59.44 46.1056 59.68C46.3456 59.8933 46.719 60 47.2256 60H53.4256C53.9323 60 54.2923 59.8933 54.5056 59.68C54.7456 59.44 54.8656 59.0667 54.8656 58.56V32.64C54.8656 32.1333 54.7456 31.7733 54.5056 31.56C54.2923 31.32 53.9323 31.2 53.4256 31.2H47.2256C46.719 31.2 46.3456 31.32 46.1056 31.56C45.8923 31.7733 45.7856 32.1333 45.7856 32.64V41.32H39.1056V32.64C39.1056 32.1333 38.9856 31.7733 38.7456 31.56C38.5323 31.32 38.1723 31.2 37.6656 31.2H31.4656C30.959 31.2 30.5856 31.32 30.3456 31.56C30.1323 31.7733 30.0256 32.1333 30.0256 32.64V58.56C30.0256 59.0667 30.1323 59.44 30.3456 59.68C30.5856 59.8933 30.959 60 31.4656 60H37.6656ZM31.4656 60.4C30.8256 60.4 30.359 60.2533 30.0656 59.96C29.7723 59.6667 29.6256 59.2 29.6256 58.56V32.64C29.6256 32 29.7723 31.5333 30.0656 31.24C30.359 30.9467 30.8256 30.8 31.4656 30.8H37.6656C38.3056 30.8 38.7723 30.9467 39.0656 31.24C39.359 31.5333 39.5056 32 39.5056 32.64V40.92H45.3856V32.64C45.3856 32 45.5323 31.5333 45.8256 31.24C46.119 30.9467 46.5856 30.8 47.2256 30.8H53.4256C54.0656 30.8 54.5323 30.9467 54.8256 31.24C55.119 31.5333 55.2656 32 55.2656 32.64V58.56C55.2656 59.2 55.119 59.6667 54.8256 59.96C54.5323 60.2533 54.0656 60.4 53.4256 60.4H47.2256C46.5856 60.4 46.119 60.2533 45.8256 59.96C45.5323 59.6667 45.3856 59.2 45.3856 58.56V50.08H39.5056V58.56C39.5056 59.2 39.359 59.6667 39.0656 59.96C38.7723 60.2533 38.3056 60.4 37.6656 60.4H31.4656ZM85.2972 32.64V52.44C85.2972 53.6933 85.1105 54.8533 84.7372 55.92C84.3905 56.96 83.7505 57.8533 82.8172 58.6C81.8839 59.3467 80.5772 59.9333 78.8972 60.36C77.2439 60.7867 75.1239 61 72.5372 61C69.9505 61 67.8172 60.7867 66.1372 60.36C64.4839 59.9333 63.1905 59.3467 62.2572 58.6C61.3239 57.8533 60.6705 56.96 60.2972 55.92C59.9505 54.8533 59.7772 53.6933 59.7772 52.44V32.64C59.7772 32 59.9239 31.5333 60.2172 31.24C60.5105 30.9467 60.9772 30.8 61.6172 30.8H67.8972C68.5372 30.8 69.0039 30.9467 69.2972 31.24C69.5905 31.5333 69.7372 32 69.7372 32.64V50.88C69.7372 51.36 69.9372 51.7333 70.3372 52C70.7639 52.24 71.5239 52.36 72.6172 52.36C73.7372 52.36 74.4972 52.24 74.8972 52C75.3239 51.7333 75.5372 51.36 75.5372 50.88V32.64C75.5372 32 75.6705 31.5333 75.9372 31.24C76.2305 30.9467 76.7105 30.8 77.3772 30.8H83.4572C84.0972 30.8 84.5639 30.9467 84.8572 31.24C85.1505 31.5333 85.2972 32 85.2972 32.64ZM84.8972 52.44V32.64C84.8972 32.1333 84.7772 31.7733 84.5372 31.56C84.3239 31.32 83.9639 31.2 83.4572 31.2H77.3772C76.8705 31.2 76.4972 31.32 76.2572 31.56C76.0439 31.7733 75.9372 32.1333 75.9372 32.64V50.88C75.9372 51.4133 75.7372 51.8667 75.3372 52.24C74.9372 52.5867 74.0305 52.76 72.6172 52.76C71.2305 52.76 70.3372 52.5867 69.9372 52.24C69.5372 51.8667 69.3372 51.4133 69.3372 50.88V32.64C69.3372 32.1333 69.2172 31.7733 68.9772 31.56C68.7639 31.32 68.4039 31.2 67.8972 31.2H61.6172C61.1105 31.2 60.7372 31.32 60.4972 31.56C60.2839 31.7733 60.1772 32.1333 60.1772 32.64V52.44C60.1772 53.6667 60.3505 54.7867 60.6972 55.8C61.0705 56.7867 61.7105 57.64 62.6172 58.36C63.5505 59.0533 64.8172 59.6 66.4172 60C68.0172 60.4 70.0572 60.6 72.5372 60.6C75.0172 60.6 77.0572 60.4 78.6572 60C80.2572 59.6 81.5105 59.0533 82.4172 58.36C83.3505 57.64 83.9905 56.7867 84.3372 55.8C84.7105 54.7867 84.8972 53.6667 84.8972 52.44ZM64.5772 34.8H64.9772V51.48C64.9772 52.9733 65.4972 54.1867 66.5372 55.12C67.6039 56.0267 69.6172 56.48 72.5772 56.48C75.5372 56.48 77.5505 56.0267 78.6172 55.12C79.6839 54.1867 80.2172 52.9733 80.2172 51.48V34.8H80.6172V51.48C80.6172 53.08 80.0572 54.3867 78.9372 55.4C77.8172 56.3867 75.6972 56.88 72.5772 56.88C69.4572 56.88 67.3372 56.3867 66.2172 55.4C65.1239 54.3867 64.5772 53.08 64.5772 51.48V34.8ZM111.221 58.56C111.221 59.2 111.074 59.6667 110.781 59.96C110.488 60.2533 110.021 60.4 109.381 60.4H99.6209C96.1276 60.4 93.5409 59.6933 91.8609 58.28C90.2076 56.8667 89.3809 54.72 89.3809 51.84V39.4C89.3809 36.4933 90.2076 34.3333 91.8609 32.92C93.5409 31.5067 96.1276 30.8 99.6209 30.8H109.381C110.021 30.8 110.488 30.9467 110.781 31.24C111.074 31.5333 111.221 32 111.221 32.64V37.48C111.221 38.12 111.074 38.5867 110.781 38.88C110.488 39.1733 110.021 39.32 109.381 39.32H101.341C100.674 39.32 100.168 39.4533 99.8209 39.72C99.4743 39.96 99.3009 40.36 99.3009 40.92V50.44C99.3009 51 99.4743 51.4 99.8209 51.64C100.168 51.8533 100.674 51.96 101.341 51.96H109.381C110.021 51.96 110.488 52.1067 110.781 52.4C111.074 52.6933 111.221 53.16 111.221 53.8V58.56ZM109.381 60C109.888 60 110.248 59.8933 110.461 59.68C110.701 59.44 110.821 59.0667 110.821 58.56V53.8C110.821 53.2933 110.701 52.9333 110.461 52.72C110.248 52.48 109.888 52.36 109.381 52.36H101.341C100.514 52.36 99.9009 52.2133 99.5009 51.92C99.1009 51.6 98.9009 51.1067 98.9009 50.44V40.92C98.9009 40.2533 99.1009 39.76 99.5009 39.44C99.9009 39.0933 100.514 38.92 101.341 38.92H109.381C109.888 38.92 110.248 38.8133 110.461 38.6C110.701 38.36 110.821 37.9867 110.821 37.48V32.64C110.821 32.1333 110.701 31.7733 110.461 31.56C110.248 31.32 109.888 31.2 109.381 31.2H99.6209C96.2876 31.2 93.8076 31.88 92.1809 33.24C90.5809 34.5733 89.7809 36.6267 89.7809 39.4V51.84C89.7809 54.6133 90.5809 56.6667 92.1809 58C93.8076 59.3333 96.2876 60 99.6209 60H109.381ZM107.181 56V56.4H100.501C97.9143 56.4 96.1943 56 95.3409 55.2C94.5143 54.4 94.1009 53.08 94.1009 51.24V40.04C94.1009 38.1467 94.5276 36.8 95.3809 36C96.2343 35.2 97.9409 34.8 100.501 34.8H107.181V35.2H100.501C98.1543 35.2 96.5676 35.5733 95.7409 36.32C94.9143 37.04 94.5009 38.28 94.5009 40.04V51.24C94.5009 52.9733 94.9009 54.2 95.7009 54.92C96.5009 55.64 98.1009 56 100.501 56H107.181Z" fill="white"/>
</svg>
